<svg width="42" height="35" viewBox="0 0 42 35" fill="none" xmlns="http://www.w3.org/2000/svg">
<g id="Union">
<path d="M17.0678 19.2242H24.3726V21.2408H17.0678V19.2242Z" fill="white"/>
<path fill-rule="evenodd" clip-rule="evenodd" d="M35.9443 15.5439H5.90576C4.91647 15.5439 4.10705 16.3606 4.10705 17.3588V23.1061C4.10705 24.1044 4.91647 24.9211 5.90576 24.9211H35.9443C36.9336 24.9211 37.743 24.1044 37.743 23.1061V17.3588C37.743 16.3606 36.9336 15.5439 35.9443 15.5439ZM28.3198 17.5605V22.9146H12.9208V17.5605H28.3198ZM6.10562 17.5605H10.9122V22.9146H6.10562V17.5605ZM35.7445 22.9146H30.3183V17.5605H35.7445V22.9146Z" fill="white"/>
<path fill-rule="evenodd" clip-rule="evenodd" d="M31.7374 13.7491H10.1028C9.53323 13.7491 9.0036 13.4769 8.66385 13.013C8.32409 12.5492 8.22416 11.9644 8.39404 11.4098L10.0628 5.92466C10.3027 5.15835 10.9922 4.64411 11.7816 4.64411H30.0586C30.858 4.64411 31.5475 5.15835 31.7773 5.92466L33.4461 11.4098C33.616 11.9644 33.5161 12.5492 33.1763 13.013C32.8366 13.4769 32.317 13.7491 31.7374 13.7491ZM29.9187 6.66072H11.9315L10.3926 11.7325H31.4576L29.9187 6.66072Z" fill="white"/>
<path fill-rule="evenodd" clip-rule="evenodd" d="M38.2944 11.3393L40.6916 12.7509L40.7015 12.7408C41.5006 13.2147 42 14.0818 42 15.0196V25.9697C42 27.4217 40.8314 28.6014 39.3931 28.6014H37.7451V32.675C37.7451 33.6833 36.936 34.5 35.9372 34.5H30.1241C29.1353 34.5 28.3263 33.6833 28.3263 32.6851V28.6014H13.5239V32.675C13.5239 33.6833 12.7149 34.5 11.7161 34.5H5.90297C4.91415 34.5 4.10511 33.6833 4.10511 32.6851V28.6014H2.6069C1.16861 28.6014 0 27.4217 0 25.9697V14.6566C0 13.7794 0.429489 12.9626 1.15862 12.4686L3.62568 10.8049C3.72556 10.7444 3.79548 10.6536 3.84542 10.5427L7.561 2.07295C7.9805 1.11507 8.91938 0.5 9.94816 0.5H31.7322C32.761 0.5 33.6999 1.11507 34.1194 2.07295L38.0447 11.0569C38.0947 11.1779 38.1845 11.2788 38.2944 11.3393ZM6.10274 32.4834H11.5163V28.6014H6.10274V32.4834ZM30.3139 32.4834H35.7275V28.6014H30.3139V32.4834ZM39.3731 26.5848C39.7127 26.5848 39.9824 26.3126 39.9824 25.9697V15.0297C39.9824 14.8078 39.8725 14.6062 39.6828 14.4953L37.2856 13.0836C36.8162 12.8013 36.4366 12.3879 36.2169 11.8737L32.2916 2.88968C32.1917 2.65777 31.9719 2.51661 31.7322 2.51661H9.95815C9.71843 2.51661 9.49869 2.65777 9.39881 2.8796L5.68323 11.3493C5.48347 11.8132 5.15386 12.1963 4.74435 12.4786L2.2673 14.1423C2.0975 14.2533 1.99762 14.4448 1.99762 14.6566V25.9697C1.99762 26.3126 2.2673 26.5848 2.6069 26.5848H39.3731Z" fill="white"/>
</g>
</svg>
