<svg width="40" height="41" viewBox="0 0 40 41" fill="none" xmlns="http://www.w3.org/2000/svg">
<g id="Union">
<path fill-rule="evenodd" clip-rule="evenodd" d="M14.5026 9.95842C14.7531 10.5193 15.2927 10.8868 15.8902 10.9545V18.9236C15.8902 19.3298 16.0347 19.7263 16.2949 20.0455L18.7521 22.9952C19.0798 23.3917 19.5712 23.6141 20.0819 23.6141C20.5927 23.6141 21.0841 23.3917 21.4117 22.9952L23.869 20.0551C24.1292 19.7457 24.2737 19.3491 24.2737 18.9333V10.9545C24.823 10.8482 25.3144 10.5 25.5457 9.97776L28.7064 2.95648C28.9473 2.41489 28.9087 1.79594 28.5811 1.29304C28.2631 0.790135 27.7138 0.5 27.126 0.5H12.9126C12.3248 0.5 11.7755 0.799807 11.4575 1.29304C11.1395 1.79594 11.0913 2.41489 11.3322 2.95648L14.4929 9.97776L14.5026 9.95842ZM22.3561 18.8462L20.0916 21.5638L17.8271 18.8462V10.9836H22.3657V18.8462H22.3561ZM26.8369 2.41489L23.8497 9.04932H16.2082L13.2209 2.41489H26.8369Z" fill="white"/>
<path fill-rule="evenodd" clip-rule="evenodd" d="M18.8003 32.1054C19.1279 32.4342 19.5615 32.618 20.0241 32.618C20.4866 32.618 20.9299 32.4342 21.2575 32.1054L37.7065 15.5677C38.3811 14.8907 38.3811 13.7785 37.7065 13.1015L36.6176 12.0087C35.9431 11.3317 34.8446 11.3317 34.17 12.0087L20.0915 25.9932L5.91661 11.999C5.57934 11.6702 5.17462 11.4961 4.67353 11.4961C4.21099 11.4961 3.76773 11.6896 3.44973 12.028L2.34157 13.1789C1.6863 13.8559 1.69594 14.9584 2.36084 15.6257L18.8099 32.1054H18.8003ZM4.70244 13.5077L18.8677 27.4826C19.5422 28.1499 20.6408 28.1499 21.3057 27.4826L35.3842 13.4981L36.2129 14.3298L20.0337 30.6064L3.85445 14.3878L4.70244 13.5077Z" fill="white"/>
<path fill-rule="evenodd" clip-rule="evenodd" d="M33.1583 23.4014H38.2655C39.2195 23.4014 40 24.1847 40 25.1422V38.7592C40 39.7166 39.2195 40.5 38.2655 40.5H1.73452C0.780535 40.5 0 39.7166 0 38.7592V25.1422C0 24.1847 0.780535 23.4014 1.73452 23.4014H7.01518C7.47772 23.4014 7.92098 23.5948 8.24862 23.9236L18.8292 34.8037H21.1515L31.9345 23.9139C32.2525 23.5851 32.6957 23.4014 33.1583 23.4014ZM1.92725 38.5561H38.0631V25.3356H33.2354L22.4524 36.2253C22.1344 36.5542 21.6912 36.7379 21.2286 36.7379H18.7425C18.2799 36.7379 17.8367 36.5445 17.509 36.2157L6.92845 25.3356H1.92725V38.5561Z" fill="white"/>
</g>
</svg>
