<svg width="36" height="41" viewBox="0 0 36 41" fill="none" xmlns="http://www.w3.org/2000/svg">
<g id="Union">
<path fill-rule="evenodd" clip-rule="evenodd" d="M18.0253 31.0535C23.9768 31.0335 28.5479 26.4154 28.6979 20.5379C28.5579 14.7403 24.1568 9.97234 18.0253 9.97234C11.5936 9.97234 7.4626 14.8903 7.34257 20.258C7.20253 26.3555 12.0638 31.0735 18.0253 31.0535ZM25.3671 20.6179C25.2971 24.6462 22.0063 27.8249 17.9452 27.7549C14.1243 27.8249 10.5734 24.6462 10.6534 20.348C10.7234 16.3497 14.0943 13.161 18.1553 13.231C22.1863 13.3109 25.4271 16.6296 25.3671 20.6179Z" fill="#0D3650"/>
<path fill-rule="evenodd" clip-rule="evenodd" d="M35.9976 23.5067C35.9987 22.5205 35.9998 21.5342 35.9998 20.5479C35.9998 19.565 35.9976 18.5821 35.9953 17.5992C35.9909 15.6333 35.9865 13.6675 35.9998 11.7017C36.0098 10.792 35.6597 10.1623 34.8495 9.72249C33.5379 9.01076 32.2362 8.27418 30.934 7.53729C30.3891 7.22892 29.844 6.92049 29.2981 6.6138C28.3865 6.10004 27.4742 5.58628 26.5616 5.07234C24.0294 3.64639 21.4948 2.21902 18.9655 0.786242C18.3153 0.416398 17.7152 0.396406 17.065 0.776247C16.7082 0.988106 16.3408 1.18394 15.9723 1.38031C15.6279 1.56381 15.2827 1.74779 14.9445 1.94576C13.377 2.8601 11.7944 3.73927 10.211 4.61889C9.56142 4.97976 8.91169 5.3407 8.26281 5.70418C7.36737 6.20681 6.47628 6.71525 5.58568 7.22341C4.13839 8.0492 2.69238 8.87426 1.23104 9.67251C0.370823 10.1423 -0.0192755 10.782 0.000731136 11.7516C0.0221572 12.9008 0.0180835 14.0449 0.0140021 15.1911C0.0123677 15.6501 0.0107321 16.1095 0.0107321 16.5696C0.0107321 17.7783 0.0123668 18.9862 0.0140007 20.1934C0.0180826 23.2095 0.0221596 26.2219 0.000731136 29.2343C0.000731136 30.2239 0.380825 30.8536 1.24104 31.3434C3.042 32.3368 4.83046 33.3469 6.61987 34.3575C7.60327 34.9129 8.58694 35.4684 9.57314 36.0215C10.5051 36.5477 11.4386 37.0725 12.3723 37.5976C13.9039 38.4587 15.4364 39.3203 16.965 40.1897C17.6552 40.5795 18.2853 40.6195 18.9755 40.2097C19.7238 39.7674 20.4851 39.3446 21.2489 38.9203C21.4346 38.8172 21.6204 38.714 21.8062 38.6104C23.4658 37.6789 25.124 36.746 26.7818 35.8133C29.5004 34.2838 32.218 32.7548 34.9395 31.2335C35.6897 30.8136 35.9998 30.2539 35.9998 29.4242C35.9931 27.4517 35.9953 25.4792 35.9976 23.5067ZM32.6489 13.4309V20.508H32.659C32.659 21.2163 32.6557 21.9246 32.6524 22.6329C32.6443 24.4035 32.6361 26.1742 32.679 27.9448C32.689 28.5946 32.4789 28.8845 31.9488 29.1843C29.4894 30.5473 27.0406 31.926 24.5909 33.3053C23.663 33.8277 22.735 34.3502 21.8062 34.8719C20.6159 35.5417 19.4256 36.2114 18.2453 36.8811C18.0753 36.9811 17.9452 36.9711 17.7752 36.8811C13.164 34.2822 8.54288 31.6833 3.92172 29.1044C3.48161 28.8545 3.34157 28.5846 3.34157 28.0748C3.34464 27.2856 3.34819 26.4961 3.35173 25.7065C3.37127 21.3557 3.39083 16.9999 3.33157 12.6513C3.33157 12.3814 3.41159 12.2314 3.65165 12.1015C5.86227 10.862 8.0729 9.61996 10.2835 8.37794C12.494 7.136 14.7045 5.89406 16.915 4.65462C16.945 4.63963 16.975 4.62213 17.005 4.60464C17.035 4.58715 17.065 4.56965 17.095 4.55466C17.1836 4.50325 17.2722 4.44206 17.3608 4.38086C17.5823 4.22786 17.8038 4.07486 18.0253 4.07486C18.2346 4.07486 18.444 4.22083 18.6533 4.36679C18.7441 4.43004 18.8348 4.49329 18.9255 4.54467C21.171 5.80412 23.4141 7.06607 25.6571 8.32802C27.9002 9.59001 30.1433 10.852 32.3889 12.1115C32.6189 12.2414 32.709 12.3814 32.669 12.6413C32.6449 12.8494 32.6466 13.064 32.6482 13.2747C32.6486 13.3271 32.6489 13.3792 32.6489 13.4309Z" fill="#0D3650"/>
</g>
</svg>
