<svg width="121" height="34" viewBox="0 0 121 34" fill="none" xmlns="http://www.w3.org/2000/svg">
<path d="M118.421 0.375714H121V15.8232H118.203L109.548 4.55251V15.8232H106.969V0.375714H109.548L118.421 11.9116V0.375714Z" fill="white"/>
<path d="M99.4985 4.0221C98.4641 2.93186 97.1892 2.38674 95.6739 2.38674C94.1586 2.38674 92.8765 2.93186 91.8275 4.0221C90.793 5.11234 90.2758 6.43831 90.2758 8C90.2758 9.54696 90.793 10.8656 91.8275 11.9558C92.8765 13.046 94.1586 13.5912 95.6739 13.5912C97.1892 13.5912 98.4641 13.046 99.4985 11.9558C100.548 10.8656 101.072 9.54696 101.072 8C101.072 6.43831 100.548 5.11234 99.4985 4.0221ZM101.4 13.7017C99.8555 15.2192 97.9468 15.9779 95.6739 15.9779C93.401 15.9779 91.4923 15.2192 89.9479 13.7017C88.4035 12.1694 87.6313 10.2689 87.6313 8C87.6313 5.71639 88.4035 3.81584 89.9479 2.29834C91.4923 0.766114 93.401 0 95.6739 0C97.9468 0 99.8555 0.766114 101.4 2.29834C102.944 3.81584 103.716 5.71639 103.716 8C103.716 10.2689 102.944 12.1694 101.4 13.7017Z" fill="white"/>
<path d="M81.8062 0.375714H84.3851V15.8232H81.8062V0.375714Z" fill="white"/>
<path d="M72.6517 2.40884C71.9087 2.40884 71.2967 2.56353 70.8159 2.87293C70.3351 3.18232 70.0947 3.65378 70.0947 4.28729C70.0947 4.90608 70.3351 5.3849 70.8159 5.72376C71.2967 6.04788 72.3166 6.40147 73.8756 6.78453C75.4492 7.16759 76.6293 7.70534 77.4161 8.39779C78.2174 9.09024 78.6181 10.1142 78.6181 11.4696C78.6181 12.8103 78.1154 13.9006 77.1101 14.7403C76.1048 15.5801 74.7862 16 73.1544 16C70.7649 16 68.645 15.1676 66.7946 13.5028L68.4119 11.5359C69.9563 12.8913 71.559 13.5691 73.22 13.5691C74.0504 13.5691 74.7061 13.3923 75.1869 13.0387C75.6823 12.6704 75.93 12.1915 75.93 11.6022C75.93 10.9982 75.6968 10.5341 75.2306 10.2099C74.7789 9.87109 73.9922 9.56906 72.8703 9.30387C71.7484 9.02394 70.896 8.77348 70.3133 8.55249C69.7305 8.31676 69.2132 8.01473 68.7616 7.64641C67.8582 6.95396 67.4066 5.89319 67.4066 4.46409C67.4066 3.03499 67.9165 1.93738 68.9364 1.17127C69.9709 0.390423 71.2457 0 72.761 0C73.7372 0 74.7061 0.162063 75.6677 0.486188C76.6293 0.810313 77.4598 1.26703 78.1591 1.85635L76.7823 3.8232C76.3306 3.41068 75.7187 3.07182 74.9465 2.80663C74.1743 2.54144 73.4094 2.40884 72.6517 2.40884Z" fill="white"/>
<path d="M61.232 0.375714H63.8108V15.8232H61.232V0.375714Z" fill="white"/>
<path d="M52.1116 13.4586C53.0003 13.4586 53.7653 13.3112 54.4063 13.0166C55.0474 12.7072 55.7176 12.221 56.417 11.558L58.0779 13.2818C56.4607 15.0939 54.4938 16 52.1771 16C49.8751 16 47.9592 15.2486 46.4293 13.7459C44.9141 12.2431 44.1564 10.3425 44.1564 8.0442C44.1564 5.74586 44.9286 3.83057 46.473 2.29834C48.032 0.766114 49.9917 0 52.352 0C54.7269 0 56.7084 0.883978 58.2965 2.65193L56.6574 4.46409C55.9289 3.75691 55.2368 3.26335 54.5812 2.98343C53.9401 2.7035 53.1825 2.56354 52.3083 2.56354C50.7639 2.56354 49.4671 3.07182 48.4181 4.0884C47.3691 5.09024 46.8446 6.37937 46.8446 7.9558C46.8446 9.5175 47.3618 10.8287 48.3963 11.8895C49.4453 12.9355 50.6837 13.4586 52.1116 13.4586Z" fill="white"/>
<path d="M41.5708 0.375714V2.82875H33.419V6.91715H40.7403V9.23759H33.419V13.3702H41.8331V15.8232H30.8401V0.375714H41.5708Z" fill="white"/>
<path d="M27.1348 5.39229C27.1348 7.94109 26.0348 9.54698 23.8347 10.21L27.8342 15.8232H24.556L20.9062 10.6299H17.5187V15.8232H14.9398V0.375714H20.6221C22.9533 0.375714 24.6215 0.773504 25.6268 1.56908C26.6322 2.36466 27.1348 3.63907 27.1348 5.39229ZM20.7314 8.26522C22.1884 8.26522 23.1791 8.03686 23.7036 7.58013C24.2281 7.12341 24.4904 6.39413 24.4904 5.39229C24.4904 4.37571 24.2209 3.68327 23.6818 3.31494C23.1427 2.93188 22.1811 2.74036 20.7969 2.74036H17.5187V8.26522H20.7314Z" fill="white"/>
<path d="M5.24516 0.375714C7.56178 0.375714 9.25188 0.82507 10.3155 1.72378C11.3791 2.62249 11.9109 4.00739 11.9109 5.87848C11.9109 7.74956 11.3645 9.11973 10.2718 9.98897C9.1936 10.8582 7.53264 11.2928 5.28887 11.2928H2.57887V15.8232H0V0.375714H5.24516ZM5.57298 8.9282C7.00083 8.9282 7.96973 8.65564 8.47968 8.11052C9.00419 7.55067 9.26645 6.74036 9.26645 5.67958C9.26645 4.60408 8.93863 3.84533 8.28298 3.40334C7.62734 2.96135 6.60016 2.74036 5.20145 2.74036H2.57887V8.9282H5.57298Z" fill="white"/>
<path d="M0 19H121V30C121 32.2091 119.209 34 117 34H4C1.79086 34 0 32.2091 0 30V19Z" fill="#1481C4"/>
<path d="M1.5 20.5H119.5V29C119.5 30.933 117.933 32.5 116 32.5H5C3.067 32.5 1.5 30.933 1.5 29V20.5Z" fill="#1481C4" stroke="white"/>
<path d="M113.021 24.0355C112.698 24.0355 112.432 24.102 112.223 24.235C112.014 24.368 111.909 24.5707 111.909 24.843C111.909 25.109 112.014 25.3148 112.223 25.4605C112.432 25.5998 112.875 25.7518 113.553 25.9165C114.237 26.0812 114.75 26.3123 115.092 26.61C115.44 26.9077 115.614 27.3478 115.614 27.9305C115.614 28.5068 115.396 28.9755 114.959 29.3365C114.522 29.6975 113.948 29.878 113.239 29.878C112.2 29.878 111.279 29.5202 110.475 28.8045L111.178 27.959C111.849 28.5417 112.546 28.833 113.268 28.833C113.629 28.833 113.914 28.757 114.123 28.605C114.338 28.4467 114.446 28.2408 114.446 27.9875C114.446 27.7278 114.344 27.5283 114.142 27.389C113.945 27.2433 113.603 27.1135 113.116 26.9995C112.628 26.8792 112.257 26.7715 112.004 26.6765C111.751 26.5752 111.526 26.4453 111.33 26.287C110.937 25.9893 110.741 25.5333 110.741 24.919C110.741 24.3047 110.962 23.8328 111.406 23.5035C111.855 23.1678 112.409 23 113.068 23C113.492 23 113.914 23.0697 114.332 23.209C114.75 23.3483 115.111 23.5447 115.415 23.798L114.816 24.6435C114.62 24.4662 114.354 24.3205 114.018 24.2065C113.682 24.0925 113.35 24.0355 113.021 24.0355Z" fill="white"/>
<path d="M100.449 23.1615H101.57V26.401L104.61 23.1615H106.035L103.365 26.0685L106.073 29.802H104.743L102.539 26.895L101.57 27.94V29.802H100.449V23.1615Z" fill="white"/>
<path d="M94.8479 25.318C94.8479 26.4137 94.3697 27.104 93.4134 27.389L95.1519 29.802H93.7269L92.1404 27.5695H90.6679V29.802H89.5469V23.1615H92.0169C93.0302 23.1615 93.7554 23.3325 94.1924 23.6745C94.6294 24.0165 94.8479 24.5643 94.8479 25.318ZM92.0644 26.553C92.6977 26.553 93.1284 26.4548 93.3564 26.2585C93.5844 26.0622 93.6984 25.7487 93.6984 25.318C93.6984 24.881 93.5812 24.5833 93.3469 24.425C93.1125 24.2603 92.6945 24.178 92.0929 24.178H90.6679V26.553H92.0644Z" fill="white"/>
<path d="M82.3094 24.729C81.8597 24.2603 81.3055 24.026 80.6469 24.026C79.9882 24.026 79.4309 24.2603 78.9749 24.729C78.5252 25.1977 78.3004 25.7677 78.3004 26.439C78.3004 27.104 78.5252 27.6708 78.9749 28.1395C79.4309 28.6082 79.9882 28.8425 80.6469 28.8425C81.3055 28.8425 81.8597 28.6082 82.3094 28.1395C82.7654 27.6708 82.9934 27.104 82.9934 26.439C82.9934 25.7677 82.7654 25.1977 82.3094 24.729ZM83.1359 28.89C82.4645 29.5423 81.6349 29.8685 80.6469 29.8685C79.6589 29.8685 78.8292 29.5423 78.1579 28.89C77.4865 28.2313 77.1509 27.4143 77.1509 26.439C77.1509 25.4573 77.4865 24.6403 78.1579 23.988C78.8292 23.3293 79.6589 23 80.6469 23C81.6349 23 82.4645 23.3293 83.1359 23.988C83.8072 24.6403 84.1429 25.4573 84.1429 26.439C84.1429 27.4143 83.8072 28.2313 83.1359 28.89Z" fill="white"/>
<path d="M65.7696 27.94L67.2516 23.1615H68.2586L69.7406 27.94L71.4126 23.1615H72.6191L70.3011 29.802H69.1896L67.7931 25.2515H67.7171L66.3206 29.802H65.2091L62.8911 23.1615H64.0976L65.7696 27.94Z" fill="white"/>
<path d="M48.7827 29.802V23.1615H49.9037V28.738H52.9342V29.802H48.7827Z" fill="white"/>
<path d="M38.6828 28.2915L38.0178 29.802H36.8208L39.7468 23.1615H40.9438L43.8698 29.802H42.6728L42.0078 28.2915H38.6828ZM41.5518 27.256L40.3453 24.52L39.1388 27.256H41.5518Z" fill="white"/>
<path d="M31.0461 24.1875V29.802H29.9251V24.1875H27.9111V23.1615H33.0601V24.1875H31.0461Z" fill="white"/>
<path d="M22.997 23.1615V24.216H19.4535V25.9735H22.636V26.971H19.4535V28.7475H23.111V29.802H18.3325V23.1615H22.997Z" fill="white"/>
<path d="M6.121 29.802H5V23.1615H6.748L8.7525 27.332L10.757 23.1615H12.4955V29.802H11.3745V24.615L9.0565 29.2225H8.4295L6.121 24.615V29.802Z" fill="white"/>
<circle cx="95.75" cy="7.75" r="2.25" fill="#1481C4"/>
</svg>
