<svg width="16" height="20" viewBox="0 0 16 20" fill="none" xmlns="http://www.w3.org/2000/svg">
<rect width="16" height="20" fill="#fffff"/>
<g id="Capabilities" clip-path="url(#clip0_0_1)">
<rect width="1440" height="4397" transform="translate(-624 -939)" fill="white"/>
<g id="Frame 2">
<rect x="-15.5" y="-13.5" width="224" height="47" rx="1.5" stroke="#E1010D"/>
<g id="Union">
<path d="M12 12.99L10.59 11.58L9 13.16L9 9H7V13.16L5.41 11.57L4 12.99L7.99 17L12 12.99Z" fill="#E1010D"/>
<path fill-rule="evenodd" clip-rule="evenodd" d="M2 0H10L16 6V18C16 19.1 15.1 20 14 20H1.99C0.89 20 0 19.1 0 18L0.0100002 2C0.0100002 0.9 0.9 0 2 0ZM2 18H14V7H9V2H2V18Z" fill="#E1010D"/>
</g>
</g>
</g>
<defs>
<clipPath id="clip0_0_1">
<rect width="1440" height="4397" fill="white" transform="translate(-624 -939)"/>
</clipPath>
</defs>
</svg>
